<svg xmlns="http://www.w3.org/2000/svg" width="93.104" height="119.122" viewBox="0 0 93.104 119.122">
  <g id="Group_54" data-name="Group 54" transform="translate(-820.499 613.107)">
    <g id="Group_49" data-name="Group 49">
      <path id="Path_84" data-name="Path 84" d="M866.769-583.057l-8.106,5.319-1.781-3.067,10.624-7.2H870.7v42.99h-3.931Z" fill="#ff6346"/>
    </g>
    <path id="Path_85" data-name="Path 85" d="M854.377-536.554a32.569,32.569,0,0,1-19.886-30,32.56,32.56,0,0,1,32.56-32.559,32.559,32.559,0,0,1,32.559,32.559A32.559,32.559,0,0,1,867.051-534a32.971,32.971,0,0,1-3.329-.168" fill="none" stroke="#334054" stroke-miterlimit="10" stroke-width="2"/>
    <path id="Path_86" data-name="Path 86" d="M875.828-521.25c1.178,5.043,4.127,13.291,11.432,24.9l3.016-9.661,9.835,2.26a50.845,50.845,0,0,1-9.862-15.383" fill="none" stroke="#334054" stroke-miterlimit="10" stroke-width="2"/>
    <path id="Path_87" data-name="Path 87" d="M860.925-520.285c-1.438,5.287-4.6,13.423-11.556,23.9l-2.828-9.718-9.877,2.069s9.234-9.047,11.736-20.151" fill="none" stroke="#334054" stroke-miterlimit="10" stroke-width="2"/>
    <path id="Path_88" data-name="Path 88" d="M825.732-584.016a4.506,4.506,0,0,1,5.694-5.654h0a2.351,2.351,0,0,0,2.632-3.622h0a4.475,4.475,0,0,1,6.255-6.255h0a2.351,2.351,0,0,0,3.622-2.632h0a4.476,4.476,0,0,1,7.882-4.016h0a2.351,2.351,0,0,0,4.258-1.384h0a4.475,4.475,0,0,1,8.737-1.383h0a2.351,2.351,0,0,0,4.477,0h0a4.475,4.475,0,0,1,8.737,1.383h0a2.351,2.351,0,0,0,4.258,1.384h0a4.476,4.476,0,0,1,7.882,4.016h0a2.351,2.351,0,0,0,3.622,2.632h0a4.475,4.475,0,0,1,6.255,6.255h0a2.351,2.351,0,0,0,2.632,3.622h0a4.475,4.475,0,0,1,4.016,7.881h0a2.351,2.351,0,0,0,1.383,4.259h0a4.475,4.475,0,0,1,1.384,8.736h0a2.351,2.351,0,0,0,0,4.477h0a4.475,4.475,0,0,1-1.384,8.737h0a2.351,2.351,0,0,0-1.383,4.258h0a4.476,4.476,0,0,1-4.016,7.882h0a2.351,2.351,0,0,0-2.632,3.622h0a4.475,4.475,0,0,1-6.255,6.255h0a2.351,2.351,0,0,0-3.622,2.631h0a4.476,4.476,0,0,1-7.882,4.016h0a2.351,2.351,0,0,0-4.258,1.384h0a4.475,4.475,0,0,1-8.737,1.384h0a2.351,2.351,0,0,0-4.477,0h0a4.475,4.475,0,0,1-8.737-1.384h0a2.351,2.351,0,0,0-4.258-1.384h0a4.476,4.476,0,0,1-7.882-4.016h0a2.351,2.351,0,0,0-3.622-2.631h0a4.475,4.475,0,0,1-6.255-6.255h0a2.351,2.351,0,0,0-2.632-3.622h0a4.476,4.476,0,0,1-4.016-7.882h0a2.351,2.351,0,0,0-1.383-4.258h0a4.476,4.476,0,0,1-1.384-8.737h0a2.351,2.351,0,0,0,0-4.477h0a4.475,4.475,0,0,1,1.384-8.736h0a2.351,2.351,0,0,0,1.383-4.259h0a4.441,4.441,0,0,1-1.678-2.227" fill="none" stroke="#1eb9d5" stroke-miterlimit="10" stroke-width="2"/>
  </g>
</svg>
