<svg xmlns="http://www.w3.org/2000/svg" width="568.518" height="490.037" viewBox="0 0 568.518 490.037">
  <g id="Group_61" data-name="Group 61" transform="translate(-140 -1944.026)">
    <circle id="Ellipse_20" data-name="Ellipse 20" cx="76.5" cy="76.5" r="76.5" transform="translate(140 1976)" fill="#f4f9f9"/>
    <circle id="Ellipse_21" data-name="Ellipse 21" cx="76.5" cy="76.5" r="76.5" transform="translate(373 1976)" fill="#f4f9f9"/>
    <circle id="Ellipse_22" data-name="Ellipse 22" cx="76.5" cy="76.5" r="76.5" transform="translate(543 2129)" fill="#f4f9f9"/>
    <g id="Group_56" data-name="Group 56" transform="translate(-11.057 1186.836)">
      <g id="Group_13" data-name="Group 13">
        <path id="Path_16" data-name="Path 16" d="M265.368,1160.73a122.91,122.91,0,1,0-4.919-4.335" fill="none" stroke="#283142" stroke-miterlimit="10" stroke-width="2"/>
        <path id="Path_17" data-name="Path 17" d="M282.15,969.873a114.2,114.2,0,1,0,7.981-4.679" fill="none" stroke="#283142" stroke-miterlimit="10" stroke-width="2"/>
        <line id="Line_24" data-name="Line 24" x1="24.304" y2="23.566" transform="translate(234.124 1156.377)" fill="none" stroke="#283142" stroke-miterlimit="10" stroke-width="2"/>
        <path id="Path_18" data-name="Path 18" d="M413.083,992.533a100.476,100.476,0,0,0-108.1-20.319" fill="none" stroke="#1eb9d5" stroke-width="2"/>
        <path id="Path_19" data-name="Path 19" d="M426,1007.677a99.881,99.881,0,0,0-6.362-8.226" fill="none" stroke="#1eb9d5" stroke-width="2"/>
        <path id="Path_20" data-name="Path 20" d="M229.759,1173.515l-67.7,61.863,9.535,10.435,67.7-61.863-5.417-5.928" fill="none" stroke="#283142" stroke-miterlimit="10" stroke-width="2"/>
      </g>
      <g id="Group_15" data-name="Group 15" transform="translate(5.563 -19)">
        <rect id="Rectangle_37" data-name="Rectangle 37" width="79.894" height="4.847" transform="translate(439.068 880.178)" fill="#047989"/>
        <rect id="Rectangle_38" data-name="Rectangle 38" width="95.706" height="4.847" transform="translate(423.256 889.994)" fill="#047989"/>
        <rect id="Rectangle_39" data-name="Rectangle 39" width="95.706" height="4.847" transform="translate(423.256 899.81)" fill="#047989"/>
        <rect id="Rectangle_40" data-name="Rectangle 40" width="95.706" height="4.847" transform="translate(423.256 909.626)" fill="#047989"/>
        <rect id="Rectangle_41" data-name="Rectangle 41" width="59.035" height="4.847" transform="translate(439.068 919.442)" fill="#047989"/>
        <rect id="Rectangle_42" data-name="Rectangle 42" width="59.035" height="4.847" transform="translate(439.068 929.258)" fill="#047989"/>
        <path id="Path_21" data-name="Path 21" d="M485.526,787.172c-4.908-17.791-19.5-9.487-30.08-5.816s-16.564-8.1-27.689,1.665c-6.544,7.012,2.467,13.931,4.631,18.832,2.48,5.63-2.433,8.292,2.074,9.978,5.512,1.423,9.626,2.3,20.984-3.039,12.713-4.568,14.222-10.308,23.025-4.749,11.993,8.4,7.9,23.054,10.7,24.23,5.788,2.509,12.06-8.783,12.059-16.441.16-7.535-.583-14.249-4.02-18.777-2.17-2.866-6.069-3.827-11.681-5.883" fill="#283142"/>
        <path id="Path_22" data-name="Path 22" d="M475.71,870.608c-.658-5.595-1.84-8.589,2.11-23.945,0,0,3.38,1.863,7.093-4.276a14.692,14.692,0,0,0,1.827-4.977" fill="none" stroke="#ff6346" stroke-miterlimit="10" stroke-width="2"/>
        <path id="Path_23" data-name="Path 23" d="M518.042,914.78c1.84-47.24-42.332-44.172-42.332-44.172S468.8,879.1,452.4,874.9c-17.791-4.56-31.9,20.859-34.969,46.626H431.2" fill="none" stroke="#1fbad6" stroke-miterlimit="10" stroke-width="2"/>
        <path id="Path_24" data-name="Path 24" d="M447.182,847.6c4.295,1.227,12.884,1.227,12.713-1.125" fill="none" stroke="#ff6346" stroke-miterlimit="10" stroke-width="2"/>
        <path id="Path_25" data-name="Path 25" d="M452.313,829.879s-7.584,2.379-6.971,6.063a4.021,4.021,0,0,0,3.892,3.638" fill="none" stroke="#ff6346" stroke-miterlimit="10" stroke-width="2"/>
        <path id="Path_26" data-name="Path 26" d="M463.479,818.476s9.777-1.243,14.685,1.825" fill="none" stroke="#ff6346" stroke-miterlimit="10" stroke-width="2"/>
        <path id="Path_27" data-name="Path 27" d="M451.17,819.074c-4.908-3.068-13.5,0-13.5,0l-.049,2.866c-.1,7.613-5.112,32.688,15.765,40.007.184.065.094.079.14.121-.1,2.1-.214,4.525-.373,7.182" fill="none" stroke="#ff6346" stroke-miterlimit="10" stroke-width="2"/>
        <g id="Group_14" data-name="Group 14">
          <circle id="Ellipse_5" data-name="Ellipse 5" cx="3.067" cy="3.067" r="3.067" transform="translate(463.747 819.994)" fill="#1fbad6"/>
          <circle id="Ellipse_6" data-name="Ellipse 6" cx="3.067" cy="3.067" r="3.067" transform="translate(440.434 819.994)" fill="#1fbad6"/>
          <rect id="Rectangle_43" data-name="Rectangle 43" width="2.656" height="1.761" rx="0.877" transform="matrix(0.197, -0.98, 0.98, 0.197, 464.719, 822.902)" fill="#fff"/>
          <rect id="Rectangle_44" data-name="Rectangle 44" width="2.656" height="1.761" rx="0.877" transform="matrix(0.197, -0.98, 0.98, 0.197, 441.406, 822.902)" fill="#fff"/>
        </g>
        <line id="Line_25" data-name="Line 25" y1="24.847" transform="translate(497.796 899.749)" fill="none" stroke="#1fbad6" stroke-miterlimit="10" stroke-width="2"/>
        <path id="Path_28" data-name="Path 28" d="M431.538,936.252s-1.84-13.5,3.068-36.2" fill="none" stroke="#1fbad6" stroke-miterlimit="10" stroke-width="2"/>
      </g>
      <g id="Group_17" data-name="Group 17" transform="translate(-13 14.383)">
        <path id="Path_29" data-name="Path 29" d="M219.218,842.323c-.045-1.309-9.71-25.41-3.276-45.043,6.72-20.5,17.907-32.009,35.729-33.912,16.86-1.8,35.123,8.478,41.784,23.618,11.346,25.785,2.431,48.7-1.992,55.337" fill="none" stroke="#283142" stroke-miterlimit="10" stroke-width="2"/>
        <path id="Path_30" data-name="Path 30" d="M284.216,809.086c.9,4.96.978,19.94-3.767,27.028a26.124,26.124,0,0,1-9.9,9.026l.021,5.459c.09,0-11.222,5.289-27.367-5.228" fill="none" stroke="#1fbad6" stroke-miterlimit="10" stroke-width="2"/>
        <path id="Path_31" data-name="Path 31" d="M237.332,815.131c-5.993.737-6.645,14.273,2.4,14.743,7.914,5.585,6.1,12.852,6.1,12.852" fill="none" stroke="#1fbad6" stroke-miterlimit="10" stroke-width="2"/>
        <path id="Path_32" data-name="Path 32" d="M288.822,808.814c-.694-3.809-5.265-8.117-13.928-8.478-14.534-.6-28.017-17.776-28.017-17.776s.75,22.905-14.373,29.282" fill="none" stroke="#283142" stroke-miterlimit="10" stroke-width="2"/>
        <path id="Path_33" data-name="Path 33" d="M313.953,890.869c3.246-18.494-7.872-35.729-35.559-38.194,1.107,3.921,1.042,11.549-.169,15.182a89.409,89.409,0,0,1-18.168-9.083s-12.111,6.661-21.8,11.506c-2.422-6.056-1.326-17.336-1.523-17.376-30.234,1.965-36.525,19.919-37.234,37.965" fill="#1fbad6"/>
        <path id="Path_34" data-name="Path 34" d="M265.81,833.037c-3.028,0-5.45-1.211-6.661-3.633" fill="none" stroke="#ff6346" stroke-miterlimit="10" stroke-width="2"/>
        <path id="Path_35" data-name="Path 35" d="M269.979,818.035s4.6,2.308,2.636,5.685c-2.082,3.554-6.2.839-6.2.839" fill="none" stroke="#1fbad6" stroke-miterlimit="10" stroke-width="2"/>
        <path id="Path_36" data-name="Path 36" d="M262.177,802.153c-2.422-1.211-6.95-1.05-9.252.884" fill="none" stroke="#283142" stroke-miterlimit="10" stroke-width="2"/>
        <path id="Path_37" data-name="Path 37" d="M273.49,807.525a7.888,7.888,0,0,1,7.46-.528" fill="none" stroke="#283142" stroke-miterlimit="10" stroke-width="2"/>
        <g id="Group_16" data-name="Group 16">
          <circle id="Ellipse_7" data-name="Ellipse 7" cx="2.406" cy="2.406" r="2.406" transform="translate(256.392 810.669)" fill="#1fbad6"/>
          <circle id="Ellipse_8" data-name="Ellipse 8" cx="2.406" cy="2.406" r="2.406" transform="translate(274.677 810.669)" fill="#1fbad6"/>
          <rect id="Rectangle_45" data-name="Rectangle 45" width="1.381" height="2.083" rx="0.688" transform="matrix(0.98, -0.197, 0.197, 0.98, 257.465, 811.786)" fill="#fff"/>
          <rect id="Rectangle_46" data-name="Rectangle 46" width="1.381" height="2.083" rx="0.688" transform="matrix(0.98, -0.197, 0.197, 0.98, 275.75, 811.786)" fill="#fff"/>
        </g>
      </g>
    </g>
    <g id="Group_72" data-name="Group 72" transform="translate(531.422 2102.27)">
      <path id="Path_111" data-name="Path 111" d="M621.793,994.916l-4.642,1.862-7.3-3.625" transform="translate(-524.575 -895.954)" fill="none" stroke="#1fbad6" stroke-miterlimit="10" stroke-width="2"/>
      <path id="Path_112" data-name="Path 112" d="M639.121,944.311c0,5.267-.767,12.671-.767,12.671" transform="translate(-570.406 -895.954)" fill="none" stroke="#283142" stroke-miterlimit="10" stroke-width="2"/>
      <path id="Path_113" data-name="Path 113" d="M629.758,945.729c7.791.865,9.095-11.651,2.524-11.84.073-2.877,4.358-14.308-2.524-25.2-7.047-11.155-29.937-20.723-46.357-2.622-4.61,5.082-7.383,11.72-9.023,18.538" transform="translate(-503.81 -895.954)" fill="none" stroke="#283142" stroke-miterlimit="10" stroke-width="2"/>
      <path id="Path_114" data-name="Path 114" d="M642.847,932.8c-4.288-.422-7.213,8.328-5.688,15.764,2.606,12.708-5.206,24.83-19.042,32.631-12.709,7.166-27.615,4.823-32.4-1.561-3.426-4.569-4.986-9.181-4.507-14.411a28.143,28.143,0,0,1,2.392-8.663s12.95,6.123,26.354,1.432c12.292-4.3,20.776-21.642,20.776-21.642" transform="translate(-516.899 -895.954)" fill="none" stroke="#1fbad6" stroke-miterlimit="10" stroke-width="2"/>
      <path id="Path_115" data-name="Path 115" d="M622.043,1009.7h0l3.223-5.156-4.113-6.012-4.593,6.658,2.974,4.553-13.826,80.55,11.258,12.12,12.637-12.12Z" transform="translate(-528.242 -895.954)" fill="#1fbad6"/>
      <path id="Path_116" data-name="Path 116" d="M610.6,1056.534s-24.238-66.657-75.312-63.194c0,0-3.526,22.91-4.063,39.485-.372,11.5-.392,23.259-.166,36.611h31.064v-36.275c20.776,13.85,30.08,53.082,30.08,53.082.218-.277,0,13.293,0,13.293" transform="translate(-434.445 -895.954)" fill="none" stroke="#ff6346" stroke-miterlimit="10" stroke-width="2"/>
      <path id="Path_117" data-name="Path 117" d="M653.425,1053.342c4.479-7.961,10.178-15.513,17.18-20.181v36.275" transform="translate(-616.961 -895.954)" fill="none" stroke="#ff6346" stroke-miterlimit="10" stroke-width="2"/>
      <path id="Path_118" data-name="Path 118" d="M706.922,1069.436c.226-13.352.207-25.111-.166-36.611-.537-16.575-4.062-39.485-4.062-39.485-51.074-3.463-75.313,63.194-75.313,63.194-2.758,7.282-5.167,12.9-5.167,12.9" transform="translate(-622.214 -895.954)" fill="none" stroke="#ff6346" stroke-miterlimit="10" stroke-width="2"/>
      <path id="Path_119" data-name="Path 119" d="M605.958,926.21" transform="translate(-504.847 -895.954)" fill="none" stroke="#1fbad6" stroke-miterlimit="10" stroke-width="2"/>
      <path id="Path_120" data-name="Path 120" d="M575.927,1090.294" transform="translate(-444.785 -895.954)" fill="none" stroke="#1fbad6" stroke-miterlimit="10" stroke-width="2"/>
      <path id="Path_121" data-name="Path 121" d="M627.677,953.295c2.873,1.444,5.749,1.45,8.054-.271" transform="translate(-556.339 -895.954)" fill="none" stroke="#ff6346" stroke-miterlimit="10" stroke-width="2"/>
      <path id="Path_122" data-name="Path 122" d="M640.37,934.739s-9.788.486-10.62,5.311c-.656,4.622,4.028,5.907,7.434,6.372" transform="translate(-562.904 -895.954)" fill="none" stroke="#283142" stroke-miterlimit="10" stroke-width="2"/>
      <path id="Path_123" data-name="Path 123" d="M609.12,927.143c2.681-1.042,9.372-.065,11.616,2.208" transform="translate(-522.787 -895.954)" fill="none" stroke="#1fbad6" stroke-miterlimit="10" stroke-width="2"/>
      <path id="Path_124" data-name="Path 124" d="M640.7,926.379c-4.088-2.555-9.473-1.069-9.473-1.069" transform="translate(-564.858 -895.954)" fill="none" stroke="#1fbad6" stroke-miterlimit="10" stroke-width="2"/>
      <g id="Group_72-2" data-name="Group 72" transform="translate(68.983 32.194)">
        <ellipse id="Ellipse_23" data-name="Ellipse 23" cx="2.555" cy="2.555" rx="2.555" ry="2.555" transform="translate(18.357 3.186)" fill="#1fbad6"/>
        <ellipse id="Ellipse_24" data-name="Ellipse 24" cx="2.555" cy="2.555" rx="2.555" ry="2.555" transform="translate(0)" fill="#1fbad6"/>
        <rect id="Rectangle_84" data-name="Rectangle 84" width="1.467" height="2.213" rx="0.731" transform="translate(21.89 6.541) rotate(-168.61)" fill="#fff"/>
        <rect id="Rectangle_85" data-name="Rectangle 85" width="1.467" height="2.213" rx="0.731" transform="translate(3.533 3.355) rotate(-168.61)" fill="#fff"/>
      </g>
    </g>
  </g>
</svg>
