<svg xmlns="http://www.w3.org/2000/svg" width="93.104" height="119.121" viewBox="0 0 93.104 119.121">
  <g id="Group_55" data-name="Group 55" transform="translate(-1048.773 613.107)">
    <path id="Path_94" data-name="Path 94" d="M1082.651-536.554a32.568,32.568,0,0,1-19.885-30,32.559,32.559,0,0,1,32.559-32.559,32.559,32.559,0,0,1,32.559,32.559A32.559,32.559,0,0,1,1095.325-534a32.972,32.972,0,0,1-3.329-.168" fill="none" stroke="#334054" stroke-miterlimit="10" stroke-width="2"/>
    <path id="Path_95" data-name="Path 95" d="M1104.1-521.25c1.178,5.043,4.127,13.291,11.432,24.9l3.017-9.661,9.834,2.26a50.832,50.832,0,0,1-9.861-15.383" fill="none" stroke="#334054" stroke-miterlimit="10" stroke-width="2"/>
    <path id="Path_96" data-name="Path 96" d="M1089.2-520.285c-1.437,5.287-4.6,13.423-11.556,23.9l-2.828-9.718-9.877,2.069s9.234-9.047,11.736-20.151" fill="none" stroke="#334054" stroke-miterlimit="10" stroke-width="2"/>
    <path id="Path_97" data-name="Path 97" d="M1054.006-584.016a4.506,4.506,0,0,1,5.694-5.654h0a2.351,2.351,0,0,0,2.631-3.622h0a4.475,4.475,0,0,1,6.255-6.255h0a2.351,2.351,0,0,0,3.622-2.632h0a4.476,4.476,0,0,1,7.882-4.016h0a2.351,2.351,0,0,0,4.258-1.384h0a4.475,4.475,0,0,1,8.737-1.383h0a2.351,2.351,0,0,0,4.477,0h0a4.475,4.475,0,0,1,8.737,1.383h0a2.351,2.351,0,0,0,4.258,1.384h0a4.475,4.475,0,0,1,7.881,4.016h0a2.351,2.351,0,0,0,3.622,2.632h0a4.475,4.475,0,0,1,6.255,6.255h0a2.351,2.351,0,0,0,2.632,3.622h0a4.475,4.475,0,0,1,4.016,7.881h0a2.351,2.351,0,0,0,1.383,4.259h0a4.475,4.475,0,0,1,1.383,8.736h0a2.351,2.351,0,0,0,0,4.477h0a4.475,4.475,0,0,1-1.383,8.737h0a2.351,2.351,0,0,0-1.383,4.258h0a4.476,4.476,0,0,1-4.016,7.882h0a2.351,2.351,0,0,0-2.632,3.622h0a4.475,4.475,0,0,1-6.255,6.255h0a2.351,2.351,0,0,0-3.622,2.631h0a4.475,4.475,0,0,1-7.881,4.016h0a2.351,2.351,0,0,0-4.258,1.384h0a4.476,4.476,0,0,1-8.737,1.384h0a2.35,2.35,0,0,0-4.477,0h0a4.476,4.476,0,0,1-8.737-1.384h0a2.351,2.351,0,0,0-4.258-1.384h0a4.476,4.476,0,0,1-7.882-4.016h0a2.351,2.351,0,0,0-3.622-2.631h0a4.476,4.476,0,0,1-6.255-6.255h0a2.351,2.351,0,0,0-2.631-3.622h0a4.475,4.475,0,0,1-4.015-7.882h0a2.351,2.351,0,0,0-1.384-4.258h0a4.476,4.476,0,0,1-1.384-8.737h0a2.351,2.351,0,0,0,0-4.477h0a4.475,4.475,0,0,1,1.384-8.736h0a2.352,2.352,0,0,0,1.384-4.259h0a4.437,4.437,0,0,1-1.679-2.227" fill="none" stroke="#1eb9d5" stroke-miterlimit="10" stroke-width="2"/>
    <g id="Group_51" data-name="Group 51">
      <path id="Path_98" data-name="Path 98" d="M1108.536-578.055a9.608,9.608,0,0,1-2.262,6.6,11.328,11.328,0,0,1-6.412,3.43v.23q5.071.635,7.521,3.228a9.5,9.5,0,0,1,2.45,6.8q0,6.023-4.179,9.265t-11.873,3.242a34.442,34.442,0,0,1-6.125-.5,20.954,20.954,0,0,1-5.4-1.772v-4.554a26.274,26.274,0,0,0,5.836,2.061,26.408,26.408,0,0,0,5.865.706q10.922,0,10.922-8.56,0-7.665-12.046-7.666h-4.15v-4.121h4.207a12.665,12.665,0,0,0,7.81-2.176,7.139,7.139,0,0,0,2.882-6.037,5.953,5.953,0,0,0-2.118-4.842,8.729,8.729,0,0,0-5.749-1.758,17.759,17.759,0,0,0-5.217.749,23.36,23.36,0,0,0-5.591,2.767l-2.421-3.228a20.185,20.185,0,0,1,5.98-3.213,21.738,21.738,0,0,1,7.133-1.167q6.14,0,9.539,2.809A9.466,9.466,0,0,1,1108.536-578.055Z" fill="#ff6346"/>
    </g>
  </g>
</svg>
