<svg xmlns="http://www.w3.org/2000/svg" width="93.105" height="119.121" viewBox="0 0 93.105 119.121">
  <g id="Group_53" data-name="Group 53" transform="translate(-930.854 613.107)">
    <path id="Path_89" data-name="Path 89" d="M964.733-536.554a32.569,32.569,0,0,1-19.886-30,32.559,32.559,0,0,1,32.559-32.559,32.559,32.559,0,0,1,32.559,32.559A32.559,32.559,0,0,1,977.406-534a32.985,32.985,0,0,1-3.329-.168" fill="none" stroke="#334054" stroke-miterlimit="10" stroke-width="2"/>
    <path id="Path_90" data-name="Path 90" d="M986.183-521.25c1.179,5.043,4.128,13.291,11.432,24.9l3.017-9.661,9.835,2.26a50.825,50.825,0,0,1-9.862-15.383" fill="none" stroke="#334054" stroke-miterlimit="10" stroke-width="2"/>
    <path id="Path_91" data-name="Path 91" d="M971.281-520.285c-1.438,5.287-4.6,13.423-11.556,23.9L956.9-506.1l-9.877,2.069s9.235-9.047,11.737-20.151" fill="none" stroke="#334054" stroke-miterlimit="10" stroke-width="2"/>
    <path id="Path_92" data-name="Path 92" d="M936.087-584.016a4.506,4.506,0,0,1,5.7-5.654h0a2.351,2.351,0,0,0,2.632-3.622h0a4.475,4.475,0,0,1,6.255-6.255h0a2.352,2.352,0,0,0,3.623-2.632h0a4.475,4.475,0,0,1,7.881-4.016h0a2.352,2.352,0,0,0,4.259-1.384h0a4.475,4.475,0,0,1,8.736-1.383h0a2.352,2.352,0,0,0,4.478,0h0a4.475,4.475,0,0,1,8.737,1.383h0a2.351,2.351,0,0,0,4.258,1.384h0a4.476,4.476,0,0,1,7.882,4.016h0a2.352,2.352,0,0,0,3.623,2.632h0a4.475,4.475,0,0,1,6.255,6.255h0a2.351,2.351,0,0,0,2.631,3.622h0a4.475,4.475,0,0,1,4.016,7.881h0a2.352,2.352,0,0,0,1.384,4.259h0a4.475,4.475,0,0,1,1.384,8.736h0a2.351,2.351,0,0,0,0,4.477h0a4.476,4.476,0,0,1-1.384,8.737h0a2.351,2.351,0,0,0-1.384,4.258h0a4.476,4.476,0,0,1-4.016,7.882h0a2.351,2.351,0,0,0-2.631,3.622h0a4.476,4.476,0,0,1-6.255,6.255h0a2.351,2.351,0,0,0-3.623,2.631h0a4.476,4.476,0,0,1-7.882,4.016h0a2.351,2.351,0,0,0-4.258,1.384h0a4.476,4.476,0,0,1-8.737,1.384h0a2.351,2.351,0,0,0-4.478,0h0a4.475,4.475,0,0,1-8.736-1.384h0a2.352,2.352,0,0,0-4.259-1.384h0a4.475,4.475,0,0,1-7.881-4.016h0a2.351,2.351,0,0,0-3.623-2.631h0a4.476,4.476,0,0,1-6.255-6.255h0a2.351,2.351,0,0,0-2.632-3.622h0a4.476,4.476,0,0,1-4.016-7.882h0a2.351,2.351,0,0,0-1.384-4.258h0A4.475,4.475,0,0,1,935-564.316h0a2.351,2.351,0,0,0,0-4.477h0a4.475,4.475,0,0,1,1.383-8.736h0a2.352,2.352,0,0,0,1.384-4.259h0a4.443,4.443,0,0,1-1.679-2.227" fill="none" stroke="#1eb9d5" stroke-miterlimit="10" stroke-width="2"/>
    <g id="Group_50" data-name="Group 50">
      <path id="Path_93" data-name="Path 93" d="M992.394-546.593H964.7v-4.121l11.1-11.153a81.982,81.982,0,0,0,6.686-7.32,18.717,18.717,0,0,0,2.421-4.265,12.238,12.238,0,0,0,.807-4.467,7.085,7.085,0,0,0-2.047-5.347,7.84,7.84,0,0,0-5.677-1.974,14.278,14.278,0,0,0-4.971.865,19.8,19.8,0,0,0-5.231,3.141l-2.536-3.256a19.419,19.419,0,0,1,12.68-4.842q5.937,0,9.309,3.04a10.46,10.46,0,0,1,3.372,8.171,15.77,15.77,0,0,1-2.248,7.925q-2.249,3.919-8.415,9.914l-9.223,9.021v.23h21.673Z" fill="#ff6346"/>
    </g>
  </g>
</svg>
